<mxfile host="65bd71144e">
    <diagram id="9L7Wck0KFNMNRKOT99sG" name="Mobile">
        <mxGraphModel dx="1284" dy="1646" grid="1" gridSize="10" guides="1" tooltips="1" connect="1" arrows="1" fold="1" page="1" pageScale="1" pageWidth="827" pageHeight="1169" math="0" shadow="0">
            <root>
                <mxCell id="0"/>
                <mxCell id="1" parent="0"/>
                <mxCell id="GaWWMe3E1NepcdC9OFB--33" value="" style="rounded=0;whiteSpace=wrap;html=1;shadow=0;sketch=0;strokeColor=default;strokeWidth=1;gradientColor=none;" parent="1" vertex="1">
                    <mxGeometry x="100" y="-910" width="220" height="360" as="geometry"/>
                </mxCell>
                <mxCell id="2" value="" style="verticalLabelPosition=bottom;verticalAlign=top;html=1;shadow=0;dashed=0;strokeWidth=3;shape=mxgraph.android.phone2;strokeColor=#666666;fillColor=#f5f5f5;fontColor=#333333;gradientColor=none;" parent="1" vertex="1">
                    <mxGeometry x="90" y="-950" width="240" height="440" as="geometry"/>
                </mxCell>
                <mxCell id="GaWWMe3E1NepcdC9OFB--12" value="" style="shape=table;html=1;whiteSpace=wrap;startSize=0;container=1;collapsible=0;childLayout=tableLayout;strokeWidth=1;strokeColor=none;fontStyle=1;fontSize=11;" parent="1" vertex="1">
                    <mxGeometry x="125" y="-850" width="170" height="30" as="geometry"/>
                </mxCell>
                <mxCell id="GaWWMe3E1NepcdC9OFB--13" value="" style="shape=tableRow;horizontal=0;startSize=0;swimlaneHead=0;swimlaneBody=0;top=0;left=0;bottom=0;right=0;collapsible=0;dropTarget=0;fillColor=none;points=[[0,0.5],[1,0.5]];portConstraint=eastwest;strokeWidth=3;" parent="GaWWMe3E1NepcdC9OFB--12" vertex="1">
                    <mxGeometry width="170" height="30" as="geometry"/>
                </mxCell>
                <mxCell id="GaWWMe3E1NepcdC9OFB--14" value="&lt;b&gt;Hidup&lt;/b&gt;" style="shape=partialRectangle;html=1;whiteSpace=wrap;connectable=0;fillColor=#1ba1e2;top=0;left=0;bottom=0;right=0;overflow=hidden;strokeWidth=3;strokeColor=#006EAF;fontColor=#ffffff;" parent="GaWWMe3E1NepcdC9OFB--13" vertex="1">
                    <mxGeometry width="56" height="30" as="geometry">
                        <mxRectangle width="56" height="30" as="alternateBounds"/>
                    </mxGeometry>
                </mxCell>
                <mxCell id="GaWWMe3E1NepcdC9OFB--15" value="&lt;b&gt;&lt;font style=&quot;font-size: 11px;&quot;&gt;Mati&lt;/font&gt;&lt;/b&gt;" style="shape=partialRectangle;html=1;whiteSpace=wrap;connectable=0;fillColor=#dae8fc;top=0;left=0;bottom=0;right=0;overflow=hidden;strokeWidth=3;strokeColor=none;" parent="GaWWMe3E1NepcdC9OFB--13" vertex="1">
                    <mxGeometry x="56" width="58" height="30" as="geometry">
                        <mxRectangle width="58" height="30" as="alternateBounds"/>
                    </mxGeometry>
                </mxCell>
                <mxCell id="GaWWMe3E1NepcdC9OFB--16" value="&lt;b&gt;&lt;font style=&quot;font-size: 11px;&quot;&gt;Otomatis&lt;/font&gt;&lt;/b&gt;" style="shape=partialRectangle;html=1;whiteSpace=wrap;connectable=0;fillColor=#dae8fc;top=0;left=0;bottom=0;right=0;overflow=hidden;strokeWidth=3;strokeColor=none;" parent="GaWWMe3E1NepcdC9OFB--13" vertex="1">
                    <mxGeometry x="114" width="56" height="30" as="geometry">
                        <mxRectangle width="56" height="30" as="alternateBounds"/>
                    </mxGeometry>
                </mxCell>
                <mxCell id="GaWWMe3E1NepcdC9OFB--25" value="&lt;table cellpadding=&quot;0&quot; cellspacing=&quot;0&quot; style=&quot;width:100%;height:100%;&quot;&gt;&lt;tr&gt;&lt;td style=&quot;width:85%&quot;&gt;100&lt;/td&gt;&lt;td style=&quot;width:15%&quot;&gt;&lt;/td&gt;&lt;/tr&gt;&lt;/table&gt;" style="strokeWidth=1;shadow=0;dashed=0;align=center;html=1;shape=mxgraph.mockup.forms.spinner;strokeColor=#999999;spinLayout=right;spinStyle=normal;adjStyle=triangle;fillColor=#aaddff;fontSize=17;fontColor=#666666;mainText=;html=1;overflow=fill;" parent="1" vertex="1">
                    <mxGeometry x="125" y="-800" width="175" height="30" as="geometry"/>
                </mxCell>
                <mxCell id="GaWWMe3E1NepcdC9OFB--34" value="Kendali" style="text;html=1;strokeColor=none;fillColor=none;align=center;verticalAlign=middle;whiteSpace=wrap;rounded=0;shadow=0;sketch=0;strokeWidth=1;fontStyle=1;fontSize=14;" parent="1" vertex="1">
                    <mxGeometry x="103" y="-910" width="60" height="30" as="geometry"/>
                </mxCell>
                <mxCell id="GaWWMe3E1NepcdC9OFB--35" value="&lt;font style=&quot;font-size: 13px;&quot;&gt;siram&lt;/font&gt;" style="strokeWidth=1;shadow=0;dashed=0;align=center;html=1;shape=mxgraph.mockup.buttons.button;strokeColor=none;fontColor=#ffffff;mainText=;buttonStyle=round;fontSize=17;fontStyle=1;fillColor=#008cff;whiteSpace=wrap;sketch=0;" parent="1" vertex="1">
                    <mxGeometry x="125" y="-760" width="75" height="30" as="geometry"/>
                </mxCell>
                <mxCell id="GaWWMe3E1NepcdC9OFB--36" value="&lt;font style=&quot;font-size: 13px;&quot;&gt;batal&lt;/font&gt;" style="strokeWidth=1;shadow=0;dashed=0;align=center;html=1;shape=mxgraph.mockup.buttons.button;strokeColor=none;mainText=;buttonStyle=round;fontSize=17;fontStyle=1;fillColor=#bac8d3;whiteSpace=wrap;sketch=0;fontColor=#FFFFFF;" parent="1" vertex="1">
                    <mxGeometry x="220" y="-760" width="80" height="30" as="geometry"/>
                </mxCell>
                <mxCell id="GaWWMe3E1NepcdC9OFB--37" value="" style="rounded=0;whiteSpace=wrap;html=1;shadow=0;sketch=0;strokeColor=default;strokeWidth=1;gradientColor=none;" parent="1" vertex="1">
                    <mxGeometry x="374" y="-910" width="220" height="360" as="geometry"/>
                </mxCell>
                <mxCell id="GaWWMe3E1NepcdC9OFB--38" value="" style="verticalLabelPosition=bottom;verticalAlign=top;html=1;shadow=0;dashed=0;strokeWidth=3;shape=mxgraph.android.phone2;strokeColor=#666666;fillColor=#f5f5f5;fontColor=#333333;gradientColor=none;" parent="1" vertex="1">
                    <mxGeometry x="364" y="-950" width="240" height="440" as="geometry"/>
                </mxCell>
                <mxCell id="GaWWMe3E1NepcdC9OFB--45" value="Monitoring" style="text;html=1;strokeColor=none;fillColor=none;align=center;verticalAlign=middle;whiteSpace=wrap;rounded=0;shadow=0;sketch=0;strokeWidth=1;fontStyle=1;fontSize=14;" parent="1" vertex="1">
                    <mxGeometry x="387" y="-910" width="60" height="30" as="geometry"/>
                </mxCell>
                <mxCell id="GaWWMe3E1NepcdC9OFB--48" value="" style="verticalLabelPosition=bottom;shadow=0;dashed=0;align=center;html=1;verticalAlign=top;strokeWidth=1;shape=mxgraph.mockup.graphics.gauge;fillColor=#ffffff;strokeColor=#999999;gaugePos=25;scaleColors=#bbddff,#ddeeff,#99ccff;gaugeLabels=,,;needleColor=#008cff;" parent="1" vertex="1">
                    <mxGeometry x="434" y="-850" width="100" height="100" as="geometry"/>
                </mxCell>
                <mxCell id="GaWWMe3E1NepcdC9OFB--49" value="L/M" style="strokeWidth=1;shadow=0;dashed=0;align=center;html=1;shape=mxgraph.mockup.graphics.anchor;fontColor=#666666;" parent="GaWWMe3E1NepcdC9OFB--48" vertex="1">
                    <mxGeometry x="25" y="20" width="50" height="20" as="geometry"/>
                </mxCell>
                <mxCell id="GaWWMe3E1NepcdC9OFB--50" value="0" style="strokeWidth=1;shadow=0;dashed=0;align=center;html=1;shape=mxgraph.mockup.graphics.anchor;align=left;fontColor=#666666;" parent="GaWWMe3E1NepcdC9OFB--48" vertex="1">
                    <mxGeometry x="20" y="75" width="50" height="20" as="geometry"/>
                </mxCell>
                <mxCell id="GaWWMe3E1NepcdC9OFB--51" value="100" style="strokeWidth=1;shadow=0;dashed=0;align=center;html=1;shape=mxgraph.mockup.graphics.anchor;align=right;fontColor=#666666;" parent="GaWWMe3E1NepcdC9OFB--48" vertex="1">
                    <mxGeometry x="30" y="75" width="50" height="20" as="geometry"/>
                </mxCell>
                <mxCell id="GaWWMe3E1NepcdC9OFB--52" value="" style="shape=cylinder3;whiteSpace=wrap;html=1;boundedLbl=1;backgroundOutline=1;size=15;shadow=0;sketch=0;strokeColor=#6c8ebf;strokeWidth=1;fontSize=13;fillColor=#dae8fc;" parent="1" vertex="1">
                    <mxGeometry x="438.75" y="-710" width="96" height="150" as="geometry"/>
                </mxCell>
                <mxCell id="GaWWMe3E1NepcdC9OFB--53" value="" style="shape=cylinder3;whiteSpace=wrap;html=1;boundedLbl=1;backgroundOutline=1;size=15;shadow=0;sketch=0;strokeColor=none;strokeWidth=1;fontSize=13;fontColor=#ffffff;fillColor=#1ba1e2;" parent="1" vertex="1">
                    <mxGeometry x="438.25" y="-660" width="96" height="100" as="geometry"/>
                </mxCell>
                <mxCell id="GaWWMe3E1NepcdC9OFB--54" value="50%" style="text;html=1;strokeColor=none;fillColor=none;align=center;verticalAlign=middle;whiteSpace=wrap;rounded=0;shadow=0;sketch=0;strokeWidth=1;fontSize=15;fontColor=#FFFFFF;fontStyle=1" parent="1" vertex="1">
                    <mxGeometry x="456.75" y="-625" width="60" height="30" as="geometry"/>
                </mxCell>
                <mxCell id="an2XCiXpJ7-AcVYaTtdH-2" value="Kecepatan air" style="text;html=1;strokeColor=none;fillColor=none;align=center;verticalAlign=middle;whiteSpace=wrap;rounded=0;shadow=0;sketch=0;strokeWidth=1;fontSize=15;fontColor=#000000;" parent="1" vertex="1">
                    <mxGeometry x="434" y="-880" width="100" height="30" as="geometry"/>
                </mxCell>
                <mxCell id="an2XCiXpJ7-AcVYaTtdH-4" value="Level air" style="text;html=1;strokeColor=none;fillColor=none;align=center;verticalAlign=middle;whiteSpace=wrap;rounded=0;shadow=0;sketch=0;strokeWidth=1;fontSize=15;fontColor=#000000;" parent="1" vertex="1">
                    <mxGeometry x="434" y="-740" width="100" height="30" as="geometry"/>
                </mxCell>
                <mxCell id="an2XCiXpJ7-AcVYaTtdH-13" value="" style="group" parent="1" vertex="1" connectable="0">
                    <mxGeometry x="130" y="-710" width="110" height="20" as="geometry"/>
                </mxCell>
                <mxCell id="an2XCiXpJ7-AcVYaTtdH-9" value="Target" style="strokeColor=none;fillColor=#dae8fc;html=1;strokeWidth=1;shadow=0;dashed=0;shape=mxgraph.ios7ui.leftButton;rSize=3;fontSize=8;sketch=0;" parent="an2XCiXpJ7-AcVYaTtdH-13" vertex="1">
                    <mxGeometry width="55.00000000000001" height="20" as="geometry"/>
                </mxCell>
                <mxCell id="an2XCiXpJ7-AcVYaTtdH-12" value="100" style="html=1;strokeWidth=1;shadow=0;dashed=0;shape=mxgraph.ios7ui.rrect;rSize=0;strokeColor=none;fillColor=#0080F0;fontColor=#ffffff;fontSize=8;sketch=0;fontStyle=1" parent="an2XCiXpJ7-AcVYaTtdH-13" vertex="1">
                    <mxGeometry x="55.00000000000001" width="55.00000000000001" height="20" as="geometry"/>
                </mxCell>
                <mxCell id="an2XCiXpJ7-AcVYaTtdH-14" value="" style="group" parent="1" vertex="1" connectable="0">
                    <mxGeometry x="130" y="-680" width="110" height="20" as="geometry"/>
                </mxCell>
                <mxCell id="an2XCiXpJ7-AcVYaTtdH-15" value="Tersiram" style="strokeColor=none;fillColor=#dae8fc;html=1;strokeWidth=1;shadow=0;dashed=0;shape=mxgraph.ios7ui.leftButton;rSize=3;fontSize=8;sketch=0;" parent="an2XCiXpJ7-AcVYaTtdH-14" vertex="1">
                    <mxGeometry width="55.00000000000001" height="20" as="geometry"/>
                </mxCell>
                <mxCell id="an2XCiXpJ7-AcVYaTtdH-16" value="30" style="html=1;strokeWidth=1;shadow=0;dashed=0;shape=mxgraph.ios7ui.rrect;rSize=0;strokeColor=none;fillColor=#0080F0;fontColor=#ffffff;fontSize=8;sketch=0;fontStyle=1" parent="an2XCiXpJ7-AcVYaTtdH-14" vertex="1">
                    <mxGeometry x="55.00000000000001" width="55.00000000000001" height="20" as="geometry"/>
                </mxCell>
                <mxCell id="6" value="" style="outlineConnect=0;dashed=0;verticalLabelPosition=bottom;verticalAlign=top;align=center;html=1;shape=mxgraph.aws3.action;fillColor=#5294CF;gradientColor=none;" parent="1" vertex="1">
                    <mxGeometry x="447" y="-1060" width="63" height="64.5" as="geometry"/>
                </mxCell>
            </root>
        </mxGraphModel>
    </diagram>
</mxfile>